<?xml version="1.0" encoding="UTF-8"?>
<svg width="228px" height="231px" viewBox="0 0 228 231" version="1.1" xmlns="http://www.w3.org/2000/svg" xmlns:xlink="http://www.w3.org/1999/xlink">
    <!-- Generator: Sketch 52.2 (67145) - http://www.bohemiancoding.com/sketch -->
    <title>elements / chatman</title>
    <desc>Created with Sketch.</desc>
    <defs>
        <linearGradient x1="50%" y1="62.6726443%" x2="0%" y2="18.3542795%" id="linearGradient-1">
            <stop stop-color="#004EC0" offset="0%"></stop>
            <stop stop-color="#3D82F0" offset="100%"></stop>
        </linearGradient>
        <path d="M1.30161982,20.8997743 C4.21017203,17.510081 5.31715832,10.6366367 5.31715832,4.2841272 C5.31715832,0.0491208325 9.49066544,-1.01897623 17.8376797,1.07983601 C18.4460398,7.48841839 19.339889,11.6619255 20.5192274,13.6003574 C22.2882349,16.5080052 30.4766776,17.4793314 30.4766776,17.4793314 C30.4766776,17.4793314 16.1193186,50.4573935 9.67908223,45.6079977 C3.23884582,40.7586019 -1.60693239,24.2894676 1.30161982,20.8997743 Z" id="path-2"></path>
        <linearGradient x1="-72.7095551%" y1="37.7813346%" x2="78.9262458%" y2="80.5173302%" id="linearGradient-4">
            <stop stop-color="#70B8F9" offset="0%"></stop>
            <stop stop-color="#3D82F0" offset="100%"></stop>
        </linearGradient>
        <linearGradient x1="3.14489123%" y1="78.5431268%" x2="69.9434406%" y2="44.9121575%" id="linearGradient-5">
            <stop stop-color="#CFDDF3" offset="0%"></stop>
            <stop stop-color="#A1B8E3" offset="100%"></stop>
        </linearGradient>
        <linearGradient x1="46.1291782%" y1="71.9963887%" x2="42.3816587%" y2="0%" id="linearGradient-6">
            <stop stop-color="#FFFFFF" offset="0%"></stop>
            <stop stop-color="#D6E3FA" offset="100%"></stop>
        </linearGradient>
        <linearGradient x1="124.648282%" y1="90.7782979%" x2="9.82171769%" y2="-15.2998099%" id="linearGradient-7">
            <stop stop-color="#FFE883" offset="0%"></stop>
            <stop stop-color="#FECC4C" offset="100%"></stop>
        </linearGradient>
    </defs>
    <g id="elements-/-chatman" stroke="none" stroke-width="1" fill="none" fill-rule="evenodd">
        <g id="Group-2">
            <g id="person-on-top" transform="translate(41.970001, 0.000000)">
                <g id="neck" transform="translate(66.000000, 45.000000)">
                    <mask id="mask-3" fill="white">
                        <use xlink:href="#path-2"></use>
                    </mask>
                    <use fill="url(#linearGradient-1)" xlink:href="#path-2"></use>
                    <path d="M3.08686003,8.38727564 C9.77457607,14.0097761 15.3003636,15.2411535 19.6642227,12.0814079 C24.0280817,8.92166232 24.0280817,5.30976595 19.6642227,1.24571881 L3.08686003,8.38727564 Z" id="shadow" fill="#3D82F0" style="mix-blend-mode: multiply;" opacity="0.5" mask="url(#mask-3)"></path>
                </g>
                <path d="M61.0499147,21.0155614 C61.0499147,27.8928917 62.4595722,41.8593263 63.7473709,45.9149754 C65.0351696,49.9706246 72.2082737,56.3309424 78.6330702,54.3746951 C85.0578667,52.4184478 88.0877726,44.2604173 88.0877726,41.6948761 C88.0877726,39.9845154 88.8504744,35.8521623 90.375878,29.2978169 C92.3110268,20.4427463 91.548325,16.0152111 88.0877726,16.0152111 C82.896944,16.0152111 61.0499147,14.1382311 61.0499147,21.0155614 Z" id="face" fill="url(#linearGradient-4)"></path>
                <path d="M87.9694631,21.1353392 C79.9953955,26.4155635 55.4782373,27.1569296 58.0755467,13.4618601 C60.672856,-0.233209451 80.7241541,-3.09112898 91.1414139,6.01050888 C95.6673986,9.96489552 99.000231,21.1353392 93.5258681,33.1089047 C92.3913912,35.5902405 90.5392563,37.7698198 87.9694631,39.6476426 C88.7514744,31.6629587 88.7514744,25.4921909 87.9694631,21.1353392 Z" id="hair" fill="#223762"></path>
                <path d="M157.75477,206.545244 C160.995353,205.50522 182.012121,200.187376 184.34991,197.693549 C186.687699,195.199721 185.671012,191.48754 181.190481,190.867218 C176.70995,190.246896 158.140338,188.035539 156.336493,188.035539 C154.532647,188.035539 150.701348,195.106028 151.700969,200.171703 C152.700589,205.237377 154.514187,207.585267 157.75477,206.545244 Z" id="shoe" fill="#192A4D"></path>
                <path d="M71.478545,217.742252 C74.0525374,216.916162 90.7461391,212.692203 92.6030433,210.711358 C94.4599475,208.730512 93.6523934,205.78193 90.0935115,205.289209 C86.5346295,204.796487 71.7848014,203.040009 70.3520084,203.040009 C68.9192154,203.040009 65.8760173,208.656092 66.6700153,212.679754 C67.4640134,216.703415 68.9045527,218.568342 71.478545,217.742252 Z" id="shoe" fill="#192A4D"></path>
                <path d="M62.2716964,139.345305 C59.8323042,143.674408 29.213873,191.079503 26.6562848,202.003367 C24.0986967,212.92723 28.6641909,220.900468 34.6224029,220.900468 C40.5806149,220.900468 71.5037922,221.558378 74.7577392,218.733069 C78.0116862,215.90776 78.428932,199.18233 74.7577392,199.18233 C72.3102773,199.18233 64.8794374,199.18233 52.4652192,199.18233 C65.7386123,181.62763 73.1694523,172.85028 74.7577392,172.85028 C77.1401696,172.85028 82.8021798,228.120386 88.8073854,230.364684 C94.8125909,232.608981 154.622558,213.372957 157.903562,210.32692 C161.184566,207.280884 157.926028,190.872255 147.707068,190.872255 C137.488108,190.872255 110.671243,204.477746 110.671243,201.161141 C110.671243,197.844536 109.664909,151.472488 107.671243,141.931375 C105.677578,132.390261 64.7110887,135.016203 62.2716964,139.345305 Z" id="jeans" fill="url(#linearGradient-5)"></path>
                <path d="M136.12069,95.7003436 C130.70783,92.8619897 116.989036,80.3074002 101,64.5684104 C99.3023231,62.8972828 95.1820977,61.4081712 88.6393239,60.1010754 C87.3548337,64.4126321 83.6613308,66.5684104 77.5588154,66.5684104 C71.4563,66.5684104 68.4971306,65.2200666 68.6813074,62.5233791 C63.3401823,64.5398294 58.8060172,67.3955181 55.0788119,71.0904449 C49.488004,76.6328353 36.6345572,97.4637925 29.2765071,100.774701 C24.3711404,102.981974 14.6373248,108.214397 0.0750601887,116.47197 L13.0635013,119.995093 C22.8724248,117.007931 30.4180188,114.526745 35.7002833,112.551534 C40.9825477,110.576323 48.314998,105.739784 57.697634,98.0419175 C50.6704375,127.876674 48.7175946,145.149425 51.8391053,149.860172 C56.5213714,156.926293 97.8868355,156.039111 103,149.860172 C106.408776,145.740879 106.408776,126.428905 103,91.9242503 L124.586836,106.583525 L148.343717,114.684309 L165.737347,114.551534 C151.713491,104.983789 141.841273,98.7000583 136.12069,95.7003436 Z" id="shirt" fill="url(#linearGradient-6)"></path>
            </g>
            <g id="yellow-comment" transform="translate(0.000000, 113.139999)">
                <rect id="Rectangle-16" fill="url(#linearGradient-7)" x="0" y="0" width="221" height="67.0053191" rx="9"></rect>
                <circle id="Oval-Copy-2" fill="#FFB417" cx="33.5026596" cy="33.5026596" r="24.6861702"></circle>
                <path d="M72.0013298,11.7553191 L198.958777,11.7553191 C201.717997,11.7553191 203.954787,13.9921093 203.954787,16.7513298 L203.954787,16.7513298 C203.954787,19.5105503 201.717997,21.7473404 198.958777,21.7473404 L72.0013298,21.7473404 C69.2421093,21.7473404 67.0053191,19.5105503 67.0053191,16.7513298 L67.0053191,16.7513298 C67.0053191,13.9921093 69.2421093,11.7553191 72.0013298,11.7553191 Z" id="Rectangle" fill="#FFB417"></path>
                <path d="M72.0013298,28.212766 L166.631649,28.212766 C169.390869,28.212766 171.62766,30.4495561 171.62766,33.2087766 L171.62766,33.2087766 C171.62766,35.9679971 169.390869,38.2047872 166.631649,38.2047872 L72.0013298,38.2047872 C69.2421093,38.2047872 67.0053191,35.9679971 67.0053191,33.2087766 L67.0053191,33.2087766 C67.0053191,30.4495561 69.2421093,28.212766 72.0013298,28.212766 Z" id="Rectangle-Copy" fill="#FFB417"></path>
                <path d="M70.5319149,48.1968085 L102.271277,48.1968085 C104.218962,48.1968085 105.797872,49.7757192 105.797872,51.7234043 L105.797872,51.7234043 C105.797872,53.6710893 104.218962,55.25 102.271277,55.25 L70.5319149,55.25 C68.5842298,55.25 67.0053191,53.6710893 67.0053191,51.7234043 L67.0053191,51.7234043 C67.0053191,49.7757192 68.5842298,48.1968085 70.5319149,48.1968085 Z" id="Rectangle-Copy-2" fill="#FFB417" opacity="0.5"></path>
            </g>
        </g>
    </g>
</svg>