<?xml version="1.0" encoding="UTF-8"?>
<svg width="14px" height="14px" viewBox="0 0 14 14" version="1.1" xmlns="http://www.w3.org/2000/svg" xmlns:xlink="http://www.w3.org/1999/xlink">
    <!-- Generator: Sketch 52.2 (67145) - http://www.bohemiancoding.com/sketch -->
    <title>icons / close</title>
    <desc>Created with Sketch.</desc>
    <defs>
        <path d="M2.07027778,3.48427778 C1.68027778,3.09427778 1.68027778,2.46027778 2.07027778,2.07027778 C2.46027778,1.68027778 3.09427778,1.68027778 3.48427778,2.07027778 L7.9995,6.5855 L12.5147222,2.07027778 C12.9047222,1.68027778 13.5387222,1.68027778 13.9287222,2.07027778 C14.3187222,2.46027778 14.3187222,3.09427778 13.9287222,3.48427778 L9.4135,7.9995 L13.9287222,12.5147222 C14.3187222,12.9047222 14.3187222,13.5387222 13.9287222,13.9287222 C13.5387222,14.3187222 12.9047222,14.3187222 12.5147222,13.9287222 L7.9995,9.4135 L3.48427778,13.9287222 C3.09427778,14.3187222 2.46027778,14.3187222 2.07027778,13.9287222 C1.68027778,13.5387222 1.68027778,12.9047222 2.07027778,12.5147222 L6.5855,7.9995 L2.07027778,3.48427778 Z" id="path-1"></path>
        <rect id="path-3" x="0" y="0" width="16" height="16"></rect>
    </defs>
    <g id="🖖-Symbols" stroke="none" stroke-width="1" fill="none" fill-rule="evenodd" opacity="0.300176711">
        <g id="top-line-/-search" transform="translate(-316.000000, -9.000000)">
            <g id="icons-/-close" transform="translate(315.000000, 8.000000)">
                <mask id="mask-2" fill="white">
                    <use xlink:href="#path-1"></use>
                </mask>
                <use id="Shape" fill="#000000" fill-rule="evenodd" xlink:href="#path-1"></use>
                <g id="color-/-black-30%" mask="url(#mask-2)" fill-rule="evenodd">
                    <g id="Rectangle">
                        <use fill="#FFFFFF" xlink:href="#path-3"></use>
                        <use fill-opacity="0.297724185" fill="#000000" xlink:href="#path-3"></use>
                    </g>
                </g>
            </g>
        </g>
    </g>
</svg>