<?xml version="1.0" encoding="UTF-8"?>
<svg width="24px" height="24px" viewBox="0 0 24 24" version="1.1" xmlns="http://www.w3.org/2000/svg" xmlns:xlink="http://www.w3.org/1999/xlink">
    <!-- Generator: Sketch 52.2 (67145) - http://www.bohemiancoding.com/sketch -->
    <title>social icons / instagram</title>
    <desc>Created with Sketch.</desc>
    <g id="social-icons-/-instagram" stroke="none" stroke-width="1" fill="none" fill-rule="evenodd">
        <path d="M6.33679834,24 L17.6632017,24 C21.1559252,24 24,21.1 24,17.55 L24,6.45 C23.950104,2.9 21.1060291,0 17.6133056,0 L6.33679834,0 C2.84407484,0 0,2.9 0,6.45 L0,17.55 C0,21.1 2.84407484,24 6.33679834,24 Z M19.5,4 C20.3275862,4 21,4.65 21,5.5 C21,6.35 20.3275862,7 19.5,7 C18.6724138,7 18,6.35 18,5.5 C18,4.65 18.6724138,4 19.5,4 Z M12,6 C15.3333333,6 18,8.7 18,12 C18,15.3 15.3333333,18 12,18 C8.66666667,18 6,15.3 6,12 C6,8.7 8.66666667,6 12,6 Z" id="Shape" fill="#FFFFFF"></path>
    </g>
</svg>