<?xml version="1.0" encoding="UTF-8"?>
<svg width="200px" height="200px" viewBox="0 0 200 200" version="1.1" xmlns="http://www.w3.org/2000/svg" xmlns:xlink="http://www.w3.org/1999/xlink">
    <!-- Generator: Sketch 52.2 (67145) - http://www.bohemiancoding.com/sketch -->
    <title>autoinstall.logo copy</title>
    <desc>Created with Sketch.</desc>
    <g id="🖖-Symbols" stroke="none" stroke-width="1" fill="none" fill-rule="evenodd">
        <g id="elements-/-logo-block">
            <g id="autoinstall.logo-copy">
                <g id="sign">
                    <circle id="Oval-2" fill="#0D2C54" cx="100" cy="100" r="99"></circle>
                    <circle id="Oval" fill="#FFDE00" fill-rule="nonzero" cx="80.6" cy="98" r="26.4"></circle>
                    <path d="M100,0 C44.8,0 0,44.8 0,100 C0,155.2 44.8,200 100,200 C155.2,200 200,155.2 200,100 C200,44.8 155.2,0 100,0 Z M152.2,52.6 C157.4,52.6 161.6,56.8 161.6,62 C161.6,67.2 157.4,71.4 152.2,71.4 C147,71.4 142.8,67.2 142.8,62 C142.8,56.8 147,52.6 152.2,52.6 Z M162.4,116 C162.4,131.2 150,143.6 134.8,143.6 C125,143.6 116.6,138.6 111.6,131 C103.4,138.8 92.2,143.6 80,143.6 C54.8,143.6 34.6,123.2 34.6,98.2 C34.6,73 55,52.8 80,52.8 C105.2,52.8 126,73.2 126,98.2 C126,99 126,99.8 126,100.6 L126,116 C126,121 130,124.8 134.8,124.8 C139.8,124.8 143.6,120.8 143.6,116 L143.6,82.4 L162.2,82.2 L162.2,116 L162.4,116 Z" id="Shape" fill="#FFDE00" fill-rule="nonzero"></path>
                </g>
            </g>
        </g>
    </g>
</svg>