<?xml version="1.0" encoding="UTF-8"?>
<svg width="24px" height="24px" viewBox="0 0 24 24" version="1.1" xmlns="http://www.w3.org/2000/svg" xmlns:xlink="http://www.w3.org/1999/xlink">
    <!-- Generator: Sketch 52.2 (67145) - http://www.bohemiancoding.com/sketch -->
    <title>icons / phone</title>
    <desc>Created with Sketch.</desc>
    <g id="icons-/-phone" stroke="none" stroke-width="1" fill="none" fill-rule="evenodd">
        <path d="M20.09,24 C19.9570834,23.9999501 19.824252,23.9932751 19.692,23.98 C16.2748284,23.6095579 12.9920429,22.4433727 10.107,20.575 C7.42058987,18.8685866 5.14242654,16.5921303 3.434,13.907 C1.54965342,10.9964128 0.378597619,7.68230433 0.016,4.234 C-0.082276033,3.14785578 0.28061542,2.07043487 1.01597898,1.26507292 C1.75134254,0.459710965 2.79141893,0.000617165039 3.882,-7.07441918e-18 L6.922,-7.07441918e-18 C8.87750031,-0.0172383358 10.5414979,1.420668 10.808,3.358 C10.918,4.198 11.124,5.023 11.419,5.813 C11.9528705,7.23591631 11.6087247,8.83945602 10.538,9.918 L10.288,10.168 C11.2453578,11.5288535 12.4304198,12.7142538 13.791,13.672 L14.049,13.414 C15.1259317,12.3490607 16.7237766,12.007474 18.142,12.539 C18.937,12.835 19.762,13.041 20.618,13.154 C22.5584203,13.4259212 23.9915951,15.1018906 23.959,17.061 L23.959,20.102 C23.9667474,22.2463017 22.2352975,23.9911806 20.091,24 L20.09,24 Z M21.19,17.05 C21.2133554,16.4797556 20.804183,15.9831494 20.24,15.897 C19.1917453,15.7585735 18.1625273,15.5019399 17.172,15.132 C16.7663676,14.9794446 16.309068,15.0762111 16,15.38 L14.706,16.674 C14.4122527,16.9679548 13.9582828,17.0293574 13.597,16.824 C10.901556,15.2912523 8.66974769,13.059444 7.137,10.364 C6.93112647,10.0024783 6.99255448,9.54791102 7.287,9.254 L8.577,7.964 C8.883,7.654 8.981,7.194 8.827,6.785 C8.457,5.795 8.202,4.767 8.065,3.728 C7.98495764,3.17081628 7.50281915,2.76024857 6.94,2.77 L3.883,2.77 C3.57233861,2.76956211 3.27565818,2.89909908 3.06480055,3.12724323 C2.85394293,3.35538738 2.74813558,3.66133494 2.773,3.971 C3.09283502,6.97952687 4.11718985,9.87033158 5.763,12.409 C7.25625418,14.7589525 9.24879165,16.7511485 11.599,18.244 C14.1196167,19.8790415 16.9882983,20.900684 19.975,21.227 C20.2883216,21.2552235 20.5989862,21.1497747 20.830389,20.9366556 C21.0617918,20.7235365 21.1923972,20.4225811 21.19,20.108 L21.19,17.05 Z" id="phone" fill="#00A6ED"></path>
    </g>
</svg>