<?xml version="1.0" encoding="UTF-8"?>
<svg width="24px" height="24px" viewBox="0 0 24 24" version="1.1" xmlns="http://www.w3.org/2000/svg" xmlns:xlink="http://www.w3.org/1999/xlink">
    <!-- Generator: Sketch 52.2 (67145) - http://www.bohemiancoding.com/sketch -->
    <title>social icons / telegram</title>
    <desc>Created with Sketch.</desc>
    <g id="social-icons-/-telegram" stroke="none" stroke-width="1" fill="none" fill-rule="evenodd">
        <path d="M20.620148,3.07929586 L0.482248534,10.9456628 C-0.186392658,11.1816538 -0.147060823,12.1256179 0.521580368,12.322277 L4.33676834,13.4629002 C5.16273688,13.6988913 5.83137807,14.3282006 6.06736908,15.1541691 L7.5619788,19.9133212 C7.75863797,20.5426305 8.54527467,20.7392897 9.01725669,20.2673077 L11.0625121,18.1827204 C11.4164986,17.8287339 11.9278125,17.7894021 12.3211308,18.0647249 L16.8442918,21.368599 C17.4736012,21.8405811 18.3782334,21.4865946 18.5355607,20.6999579 L21.9574303,4.2592509 C22.1934213,3.43328237 21.4067847,2.76464118 20.620148,3.07929586 Z M18.1029105,6.69782466 L10.0005526,13.8562186 C9.56790237,14.2495369 9.2532477,14.8001826 9.21391586,15.3901602 C9.13525219,15.9801377 8.30928366,16.0588013 8.11262449,15.5081557 L7.75863797,14.3282006 C7.48331513,13.4629002 7.83730164,12.558268 8.5846065,12.086286 L17.8275877,6.34383815 C18.0635787,6.18651081 18.2995697,6.50116549 18.1029105,6.69782466 Z" id="Shape" fill="#FFFFFF"></path>
    </g>
</svg>