<?xml version="1.0" encoding="UTF-8"?>
<svg width="24px" height="24px" viewBox="0 0 24 24" version="1.1" xmlns="http://www.w3.org/2000/svg" xmlns:xlink="http://www.w3.org/1999/xlink">
    <!-- Generator: Sketch 52.2 (67145) - http://www.bohemiancoding.com/sketch -->
    <title>social icons / twitter</title>
    <desc>Created with Sketch.</desc>
    <g id="social-icons-/-twitter" stroke="none" stroke-width="1" fill="none" fill-rule="evenodd">
        <path d="M4.09349352,9.53657666 C4.13536339,9.53657666 4.13536339,9.53657666 4.09349352,9.53657666 C3.71666468,9.53657666 3.33983585,9.45283692 3.00487689,9.36909718 C2.46056857,9.2016177 1.95813013,9.70405614 2.12560961,10.2064946 C2.58617818,12.006899 4.00975378,13.4304746 5.8101582,13.8073034 C5.3914595,13.932913 4.97276079,13.9747829 4.55406209,13.9747829 C4.13536339,13.9747829 3.8422743,14.4353515 4.05162365,14.8121803 C4.84715118,16.2776258 6.39633639,17.2825027 8.11300107,17.3243725 L8.53169977,17.3243725 C8.99226835,17.3243725 9.36909718,17.7012014 9.36909718,18.16177 C9.36909718,18.6223385 8.99226835,18.9991674 8.53169977,18.9991674 C7.98739146,18.9991674 7.31747353,18.9572975 6.64755561,18.789818 C6.2288569,18.7060783 5.8101582,18.7060783 5.43332937,18.8316879 C4.72154157,19.0829071 3.96788391,19.2922565 3.17235637,19.3759962 C2.87926728,19.4178661 2.66991793,19.6272154 2.66991793,19.9203045 C2.66991793,20.1296539 2.79552754,20.3390032 3.00487689,20.422743 C4.63780183,21.1345307 6.48007613,21.5532295 8.40609016,21.5532295 C17.2406328,21.5532295 22.0975378,14.0585227 22.0975378,7.52682289 C22.0975378,7.14999405 22.2650172,6.77316522 22.5581063,6.521946 C23.0605448,6.10324729 23.5211134,5.64267872 23.9398121,5.09837041 C24.1072915,4.88902105 23.8979422,4.59593196 23.646723,4.6796717 C23.1442845,4.84715118 22.6418461,4.97276079 22.0975378,5.05650054 C22.013798,5.05650054 21.9719282,4.97276079 22.0556679,4.88902105 C22.683716,4.42845248 23.2280243,3.80040442 23.5629832,3.08861663 C23.6885928,2.83739741 23.4373736,2.58617818 23.1861544,2.7117878 C22.7255858,2.96300702 22.2231474,3.1304865 21.7207089,3.29796598 C21.2182705,3.46544546 20.6320923,3.33983585 20.2133936,3.00487689 C19.4178661,2.37682883 18.3711193,2 17.2825027,2 C15.0633995,2 13.1792554,3.5491852 12.6349471,5.68454859 C12.5512073,6.06137742 12.8442964,6.39633639 13.2211253,6.39633639 C13.8910432,6.35446652 14.5609611,6.27072678 15.0633995,6.18698703 C15.4820983,6.10324729 15.900797,6.31259665 16.0682764,6.68942548 C16.2776258,7.19186392 15.9845367,7.69430237 15.5239681,7.81991198 C13.5979541,8.36422029 11.4625907,7.98739146 11.4625907,7.98739146 C8.19674081,7.52682289 5.30771976,5.93576781 3.21422624,3.63292494 C2.92113715,3.29796598 2.37682883,3.42357559 2.25121922,3.80040442 C2.08373974,4.30284287 2,4.84715118 2,5.43332937 C2,7.14999405 2.83739741,8.65730939 4.09349352,9.53657666 Z" id="Path" fill="#FFFFFF"></path>
    </g>
</svg>