<?xml version="1.0" encoding="UTF-8"?>
<svg width="24px" height="24px" viewBox="0 0 24 24" version="1.1" xmlns="http://www.w3.org/2000/svg" xmlns:xlink="http://www.w3.org/1999/xlink">
    <!-- Generator: Sketch 52.2 (67145) - http://www.bohemiancoding.com/sketch -->
    <title>social icons / whatsapp</title>
    <desc>Created with Sketch.</desc>
    <g id="social-icons-/-whatsapp" stroke="none" stroke-width="1" fill="none" fill-rule="evenodd">
        <path d="M1.24363616,19.0134366 C1.07238715,19.6556204 0.901138148,20.4262409 0.687076893,21.2396737 C0.387391136,22.4812289 1.50050966,23.6371597 2.74206494,23.2946617 L4.92548975,22.7381024 C5.65329801,22.5668534 6.42391853,22.6524779 7.10891455,22.9521637 C9.12109035,23.851221 11.3901397,24.2365312 13.7876257,23.851221 C19.0535326,23.0377882 23.2063209,18.7565631 23.8485047,13.4906562 C24.8331865,5.69882653 18.2829121,-0.851447883 10.4910824,0.0904216396 C5.2251755,0.732605405 0.943950399,4.92820601 0.130517629,10.1941129 C-0.211980379,12.5915989 0.130517629,14.8606482 1.0295749,16.872824 C1.32926066,17.5150078 1.41488516,18.2856283 1.24363616,19.0134366 Z M7.40860031,6.7691328 C7.66547381,6.55507155 8.00797182,6.38382254 8.17922083,6.38382254 C8.35046983,6.38382254 9.1639026,6.29819804 9.42077611,6.89756956 C9.67764961,7.49694107 10.2770211,8.90974535 10.3198334,9.08099436 C10.4054579,9.20943111 10.4482701,9.38068012 10.3626456,9.59474137 C10.2770211,9.80880263 10.2342089,9.89442713 10.0629599,10.0656761 C9.93452312,10.2369251 9.76327411,10.4509864 9.63483736,10.5794231 C9.50640061,10.7078599 9.3351516,10.8791089 9.50640061,11.1787947 C9.67764961,11.4784804 10.2770211,12.4203499 11.1332661,13.1909705 C12.2463847,14.1756522 13.2310664,14.475338 13.48794,14.646587 C13.7876257,14.7750237 13.9588747,14.7750237 14.1301237,14.5609625 C14.3013727,14.3469012 14.857932,13.7047175 15.0719932,13.4050317 C15.2860545,13.105346 15.4573035,13.1481582 15.7569893,13.276595 C16.0138628,13.3622195 17.4694793,14.0900277 17.7691651,14.2184645 C18.0688508,14.3469012 18.2400998,14.4325257 18.3257243,14.5609625 C18.4113488,14.6893992 18.4113488,15.2887708 18.1544753,15.9309545 C17.8976018,16.6159505 17.255418,17.2581343 16.7844833,17.4293833 C16.227924,17.6434446 15.5857403,17.7290691 12.8029439,16.6159505 C9.80608637,15.4172075 7.75109832,12.4203499 7.62266156,12.2062887 C7.49422481,11.9922274 6.42391853,10.6222354 6.42391853,9.16661886 C6.38110628,7.75381458 7.1517268,7.02600631 7.40860031,6.7691328 Z" id="Shape" fill="#FFFFFF"></path>
    </g>
</svg>