<?xml version="1.0" encoding="UTF-8"?>
<svg width="24px" height="24px" viewBox="0 0 24 24" version="1.1" xmlns="http://www.w3.org/2000/svg" xmlns:xlink="http://www.w3.org/1999/xlink">
    <!-- Generator: Sketch 52.2 (67145) - http://www.bohemiancoding.com/sketch -->
    <title>social icons / facebook</title>
    <desc>Created with Sketch.</desc>
    <g id="social-icons-/-facebook" stroke="none" stroke-width="1" fill="none" fill-rule="evenodd">
        <path d="M6.90322581,13.6774194 L8.3655914,13.6774194 C8.49462366,13.6774194 8.62365591,13.8064516 8.62365591,13.9354839 L8.62365591,23.1397849 C8.62365591,23.6129032 9.01075269,24 9.48387097,24 L12.8387097,24 C13.311828,24 13.6989247,23.6129032 13.6989247,23.1397849 L13.6989247,13.9354839 C13.6989247,13.8064516 13.827957,13.6774194 13.9569892,13.6774194 L16.3655914,13.6774194 C16.7956989,13.6774194 17.1827957,13.3763441 17.2258065,12.9462366 L17.7849462,9.59139785 C17.8709677,9.07526882 17.4408602,8.55913978 16.9247312,8.55913978 L14.0860215,8.55913978 C13.8709677,8.55913978 13.6989247,8.38709677 13.6989247,8.17204301 L13.6989247,6.02150538 C13.6989247,5.46236559 14,5.16129032 14.5591398,5.16129032 L17.0967742,5.16129032 C17.5698925,5.16129032 17.9569892,4.77419355 17.9569892,4.30107527 L17.9569892,0.860215054 C17.9569892,0.387096774 17.5698925,0 17.0967742,0 L14.0430108,0 C8.4516129,0 8.58064516,4.51612903 8.58064516,5.16129032 L8.58064516,8.30107527 C8.58064516,8.43010753 8.4516129,8.55913978 8.32258065,8.55913978 L6.86021505,8.55913978 C6.38709677,8.55913978 6,8.94623656 6,9.41935484 L6,12.7741935 C6.04301075,13.2903226 6.43010753,13.6774194 6.90322581,13.6774194 Z" id="Path" fill="#FFFFFF"></path>
    </g>
</svg>