<?xml version="1.0" encoding="UTF-8"?>
<svg width="24px" height="24px" viewBox="0 0 24 24" version="1.1" xmlns="http://www.w3.org/2000/svg" xmlns:xlink="http://www.w3.org/1999/xlink">
    <!-- Generator: Sketch 52.2 (67145) - http://www.bohemiancoding.com/sketch -->
    <title>social icons / vkontakte</title>
    <desc>Created with Sketch.</desc>
    <g id="social-icons-/-vkontakte" stroke="none" stroke-width="1" fill="none" fill-rule="evenodd">
        <path d="M19.5721964,15.2006798 C17.7241966,13.3919992 17.9601115,13.6672332 20.2013027,10.5610208 C21.5381536,8.67370183 22.0886217,7.49412749 21.9313451,6.98297861 C21.8527068,6.66842546 20.7910899,6.74706375 20.7910899,6.74706375 L17.4882817,6.74706375 C17.4882817,6.74706375 16.9771329,6.74706375 16.7805371,7.10093605 C16.4266648,7.76936151 16.2693883,8.59506354 15.5616437,9.81395702 C14.0675162,12.4483397 13.477729,12.6056163 13.2418141,12.4483397 C12.6913461,12.0551483 12.8093035,10.9148931 12.8093035,10.089191 C12.8093035,7.53344664 13.1631758,6.47182973 12.1015589,6.15727658 C11.8656441,6.07863829 11.6690484,6.07863829 11.3151761,6.03931914 C10.8826655,6 10.4501549,6 10.0569634,6 C9.07398481,6 8.32692106,6.03931914 7.81577218,6.27523401 C7.42258074,6.47182973 7.14734673,6.90434033 7.34394245,6.94365947 C7.57985732,6.98297861 8.05168705,7.10093605 8.32692106,7.45480835 C8.68079336,7.92663808 8.64147422,9.02757413 8.64147422,9.02757413 C8.64147422,9.02757413 8.83806994,12.0551483 8.16964448,12.4090206 C7.73713389,12.6842546 7.10802758,12.1337866 5.81049581,9.73531874 C5.14207035,8.51642525 5.06343206,7.69072322 4.63092147,7.14025519 C4.35568746,6.78638289 3.84453858,6.66842546 3.84453858,6.66842546 L0.699007015,6.66842546 C0.699007015,6.66842546 0.148538991,6.62910631 0.0699007015,6.78638289 C-0.0873758768,6.98297861 0.0699007015,7.37617006 0.0699007015,7.37617006 C0.0699007015,7.37617006 2.54700681,13.4706375 5.33866608,16.5375307 C7.81577218,19.4471474 10.7253889,19.2898709 10.7253889,19.2898709 C10.7253889,19.2898709 12.4161121,19.3685092 12.652027,18.9359986 C12.8093035,18.778722 12.8486227,18.3068923 12.8486227,18.3068923 C12.8486227,18.3068923 12.8093035,16.4195733 13.6350056,16.1443393 C14.4607076,15.8691053 15.4830054,17.95302 16.5839414,18.7394028 C17.4096435,19.3685092 17.6455583,19.2898709 18.0387498,19.2898709 C18.8251327,19.2898709 20.9876856,19.2898709 20.9876856,19.2898709 C20.9876856,19.2898709 22.5211323,19.1325943 21.8133877,17.8350625 C21.6954302,17.7564242 21.3415579,16.9307222 19.5721964,15.2006798 Z" id="Path" fill="#FFFFFF"></path>
    </g>
</svg>