<?xml version="1.0" encoding="UTF-8"?>
<svg width="24px" height="24px" viewBox="0 0 24 24" version="1.1" xmlns="http://www.w3.org/2000/svg" xmlns:xlink="http://www.w3.org/1999/xlink">
    <!-- Generator: Sketch 52.2 (67145) - http://www.bohemiancoding.com/sketch -->
    <title>icons / back</title>
    <desc>Created with Sketch.</desc>
    <defs>
        <path d="M8.5905,16.94025 C9.1845,17.52525 9.1845,18.47475 8.5905,19.06125 C7.998,19.64625 7.035,19.64625 6.4425,19.06125 L0.6675,13.58925 C0.2355,13.16625 0,12.60375 0,11.99925 C0,11.39925 0.237,10.83225 0.666,10.40925 L6.441,4.93875 C7.035,4.35375 7.998,4.35375 8.592,4.93875 C9.1845,5.52375 9.1845,6.47325 8.592,7.05975 L4.872,10.49925 L22.5,10.49925 C23.3295,10.49925 24,11.16825 24,11.99925 C24,12.82425 23.328,13.49925 22.5,13.49925 L4.869,13.49925 L8.5905,16.94025 Z" id="path-1"></path>
    </defs>
    <g id="icons-/-back" stroke="none" stroke-width="1" fill="none" fill-rule="evenodd">
        <mask id="mask-2" fill="white">
            <use xlink:href="#path-1"></use>
        </mask>
        <use id="Shape" fill="#000000" opacity="0.299386161" xlink:href="#path-1"></use>
    </g>
</svg>