<?xml version="1.0" encoding="UTF-8"?>
<svg width="24px" height="24px" viewBox="0 0 24 24" version="1.1" xmlns="http://www.w3.org/2000/svg" xmlns:xlink="http://www.w3.org/1999/xlink">
    <!-- Generator: Sketch 52.3 (67297) - http://www.bohemiancoding.com/sketch -->
    <title>icons / menu</title>
    <desc>Created with Sketch.</desc>
    <defs>
        <path d="M10.5,21 L22.5,21 C23.328,21 24,20.328 24,19.5 C24,18.672 23.328,18 22.5,18 L10.5,18 C9.672,18 9,18.672 9,19.5 C9,20.328 9.672,21 10.5,21 Z M10.5,13.5 L22.5,13.5 C23.328,13.5 24,12.828 24,12 C24,11.172 23.328,10.5 22.5,10.5 L10.5,10.5 C9.672,10.5 9,11.172 9,12 C9,12.828 9.672,13.5 10.5,13.5 Z M10.5,6 C9.672,6 9,5.328 9,4.5 C9,3.672 9.672,3 10.5,3 L22.5,3 C23.328,3 24,3.672 24,4.5 C24,5.328 23.328,6 22.5,6 L10.5,6 Z M1.5,21 C0.672,21 6.21724894e-15,20.328 6.21724894e-15,19.5 C6.21724894e-15,18.672 0.672,18 1.5,18 L4.5,18 C5.328,18 6,18.672 6,19.5 C6,20.328 5.328,21 4.5,21 L1.5,21 Z M1.5,13.5 C0.672,13.5 5.32907052e-15,12.828 5.32907052e-15,12 C5.32907052e-15,11.172 0.672,10.5 1.5,10.5 L4.5,10.5 C5.328,10.5 6,11.172 6,12 C6,12.828 5.328,13.5 4.5,13.5 L1.5,13.5 Z M1.5,6 C0.672,6 6.21724894e-15,5.328 6.21724894e-15,4.5 C6.21724894e-15,3.672 0.672,3 1.5,3 L4.5,3 C5.328,3 6,3.672 6,4.5 C6,5.328 5.328,6 4.5,6 L1.5,6 Z" id="path-1"></path>
    </defs>
    <g id="icons-/-menu" stroke="none" stroke-width="1" fill="none" fill-rule="evenodd">
        <mask id="mask-2" fill="white">
            <use xlink:href="#path-1"></use>
        </mask>
        <use id="Shape" fill="#00A6ED" xlink:href="#path-1"></use>
    </g>
</svg>