<?xml version="1.0" encoding="UTF-8"?>
<svg width="24px" height="24px" viewBox="0 0 24 24" version="1.1" xmlns="http://www.w3.org/2000/svg" xmlns:xlink="http://www.w3.org/1999/xlink">
    <!-- Generator: Sketch 52.2 (67145) - http://www.bohemiancoding.com/sketch -->
    <title>icons / chat</title>
    <desc>Created with Sketch.</desc>
    <defs>
        <path d="M11.9898667,20.9916326 C7.90386674,20.9886326 4.33236674,18.2346326 3.28986674,14.2866326 C2.24586674,10.3341326 3.99186674,6.17613257 7.54236674,4.15563257 C11.0928667,2.13663257 15.5598667,2.76063257 18.4233667,5.67363257 C21.2883667,8.58813257 21.8283667,13.0641326 19.7433667,16.5786326 C19.5333667,16.9356326 19.4808667,17.3616326 19.5933667,17.7591326 L20.3463667,20.3121326 L17.7693667,19.5771326 C17.3718667,19.4616326 16.9443667,19.5171326 16.5888667,19.7271326 C15.1968667,20.5551326 13.6068667,20.9931326 11.9883667,20.9916326 L11.9898667,20.9916326 Z M22.0848667,23.9316326 C22.6098667,24.0816326 23.1738667,23.9376326 23.5608667,23.5506326 C23.9463667,23.1666326 24.0918667,22.6026326 23.9433667,22.0776326 C23.7933667,21.5526326 22.6428667,17.5386326 22.6443667,17.5251326 C25.3713667,12.2721326 23.8593667,5.81463257 19.0848667,2.31813257 C14.3103667,-1.17836743 7.69536674,-0.671367431 3.51486674,3.51363257 C-0.670133264,7.69863257 -1.18013326,14.3136326 2.31936674,19.0866326 C5.81736674,23.8596326 12.2748667,25.3716326 17.5293667,22.6416326 L22.0893667,23.9346326 L22.0848667,23.9346326 L22.0848667,23.9316326 Z" id="path-1"></path>
    </defs>
    <g id="icons-/-chat" stroke="none" stroke-width="1" fill="none" fill-rule="evenodd">
        <mask id="mask-2" fill="white">
            <use xlink:href="#path-1"></use>
        </mask>
        <use id="Shape" fill="#000000" opacity="0.299339658" xlink:href="#path-1"></use>
    </g>
</svg>