<?xml version="1.0" encoding="UTF-8"?>
<svg width="24px" height="24px" viewBox="0 0 24 24" version="1.1" xmlns="http://www.w3.org/2000/svg" xmlns:xlink="http://www.w3.org/1999/xlink">
    <!-- Generator: Sketch 52.2 (67145) - http://www.bohemiancoding.com/sketch -->
    <title>icons / home@azure</title>
    <desc>Created with Sketch.</desc>
    <defs>
        <path d="M21,24 L16.5,24 C14.8425,24 13.5,22.6575 13.5,21 L13.5,16.5 C13.5,14.8425 14.8425,13.5 16.5,13.5 L21,13.5 C22.6575,13.5 24,14.8425 24,16.5 L24,21 C24,22.6575 22.6575,24 21,24 Z M21,16.5 L16.5,16.5 L16.5,21 L21,21 L21,16.5 Z M21,10.5 L16.5,10.5 C14.8425,10.5 13.5,9.1575 13.5,7.5 L13.5,3 C13.5,1.3425 14.8425,0 16.5,0 L21,0 C22.6575,0 24,1.3425 24,3 L24,7.5 C24,9.1575 22.6575,10.5 21,10.5 Z M21,3 L16.5,3 L16.5,7.5 L21,7.5 L21,3 Z M7.5,24 L3,24 C1.3425,24 0,22.6575 0,21 L0,16.5 C0,14.8425 1.3425,13.5 3,13.5 L7.5,13.5 C9.1575,13.5 10.5,14.8425 10.5,16.5 L10.5,21 C10.5,22.6575 9.1575,24 7.5,24 Z M7.5,16.5 L3,16.5 L3,21 L7.5,21 L7.5,16.5 Z M7.5,10.5 L3,10.5 C1.3425,10.5 0,9.1575 0,7.5 L0,3 C0,1.3425 1.3425,0 3,0 L7.5,0 C9.1575,0 10.5,1.3425 10.5,3 L10.5,7.5 C10.5,9.1575 9.1575,10.5 7.5,10.5 Z M7.5,3 L3,3 L3,7.5 L7.5,7.5 L7.5,3 Z" id="path-1"></path>
    </defs>
    <g id="icons-/-home" stroke="none" stroke-width="1" fill="none" fill-rule="evenodd">
        <mask id="mask-2" fill="white">
            <use xlink:href="#path-1"></use>
        </mask>
        <use id="Shape" fill="#00A6ED" xlink:href="#path-1"></use>
    </g>
</svg>