<?xml version="1.0" encoding="UTF-8"?>
<svg width="24px" height="24px" viewBox="0 0 24 24" version="1.1" xmlns="http://www.w3.org/2000/svg" xmlns:xlink="http://www.w3.org/1999/xlink">
    <!-- Generator: Sketch 52.2 (67145) - http://www.bohemiancoding.com/sketch -->
    <title>icons / menu@black30</title>
    <desc>Created with Sketch.</desc>
    <defs>
        <path d="M1.5,21 L22.5,21 C23.328,21 24,20.328 24,19.5 C24,18.672 23.328,18 22.5,18 L1.5,18 C0.672,18 0,18.672 0,19.5 C0,20.328 0.672,21 1.5,21 Z M1.5,13.5 L22.5,13.5 C23.328,13.5 24,12.828 24,12 C24,11.172 23.328,10.5 22.5,10.5 L1.5,10.5 C0.672,10.5 0,11.172 0,12 C0,12.828 0.672,13.5 1.5,13.5 Z M1.5,6 L22.5,6 C23.328,6 24,5.328 24,4.5 C24,3.672 23.328,3 22.5,3 L1.5,3 C0.672,3 0,3.672 0,4.5 C0,5.328 0.672,6 1.5,6 Z" id="path-1"></path>
    </defs>
    <g id="icons-/-menu" stroke="none" stroke-width="1" fill="none" fill-rule="evenodd">
        <mask id="mask-2" fill="white">
            <use xlink:href="#path-1"></use>
        </mask>
        <use id="Shape" fill="#000000" opacity="0.299920945" xlink:href="#path-1"></use>
    </g>
</svg>