<?xml version="1.0" encoding="UTF-8"?>
<svg width="24px" height="24px" viewBox="0 0 24 24" version="1.1" xmlns="http://www.w3.org/2000/svg" xmlns:xlink="http://www.w3.org/1999/xlink">
    <!-- Generator: Sketch 52.2 (67145) - http://www.bohemiancoding.com/sketch -->
    <title>icons / ok</title>
    <desc>Created with Sketch.</desc>
    <defs>
        <path d="M12,24 C18.627,24 24,18.627 24,12 C24,5.373 18.627,0 12,0 C5.373,0 0,5.373 0,12 C0,18.627 5.373,24 12,24 Z M12,21 C16.971,21 21,16.971 21,12 C21,7.029 16.971,3 12,3 C7.029,3 3,7.029 3,12 C3,16.971 7.029,21 12,21 Z M10.5,16.5 C11.1,16.5 11.667,16.263 12.09,15.8355 L17.562,10.086 C18.147,9.4935 18.147,8.5365 17.562,7.944 C16.977,7.3515 16.026,7.3515 15.441,7.944 L10.5,13.158 L8.5605,10.944 C7.9755,10.3515 7.026,10.3515 6.4395,10.944 C5.8545,11.5365 5.8545,12.4935 6.4395,13.086 L8.9085,15.8355 C9.333,16.263 9.8955,16.5 10.4985,16.5 L10.5,16.5 Z" id="path-1"></path>
    </defs>
    <g id="icons-/-ok" stroke="none" stroke-width="1" fill="none" fill-rule="evenodd">
        <mask id="mask-2" fill="white">
            <use xlink:href="#path-1"></use>
        </mask>
        <use id="Shape" fill="#7FB800" xlink:href="#path-1"></use>
    </g>
</svg>