<?xml version="1.0" encoding="UTF-8"?>
<svg width="24px" height="24px" viewBox="0 0 24 24" version="1.1" xmlns="http://www.w3.org/2000/svg" xmlns:xlink="http://www.w3.org/1999/xlink">
    <!-- Generator: Sketch 52.2 (67145) - http://www.bohemiancoding.com/sketch -->
    <title>icons / product menu</title>
    <desc>Created with Sketch.</desc>
    <defs>
        <path d="M21,15 C22.6575,15 24,13.6575 24,12 C24,10.3425 22.6575,9 21,9 C19.3425,9 18,10.3425 18,12 C18,13.6575 19.3425,15 21,15 Z M12,15 C13.6575,15 15,13.6575 15,12 C15,10.3425 13.6575,9 12,9 C10.3425,9 9,10.3425 9,12 C9,13.6575 10.3425,15 12,15 Z M3,15 C4.6575,15 6,13.6575 6,12 C6,10.3425 4.6575,9 3,9 C1.3425,9 0,10.3425 0,12 C0,13.6575 1.3425,15 3,15 Z" id="path-1"></path>
    </defs>
    <g id="icons-/-product-menu" stroke="none" stroke-width="1" fill="none" fill-rule="evenodd">
        <mask id="mask-2" fill="white">
            <use xlink:href="#path-1"></use>
        </mask>
        <use id="Shape" fill="#000000" opacity="0.300130208" transform="translate(12.000000, 12.000000) rotate(90.000000) translate(-12.000000, -12.000000) " xlink:href="#path-1"></use>
    </g>
</svg>