<?xml version="1.0" encoding="UTF-8"?>
<svg width="16px" height="16px" viewBox="0 0 16 16" version="1.1" xmlns="http://www.w3.org/2000/svg" xmlns:xlink="http://www.w3.org/1999/xlink">
    <!-- Generator: Sketch 52.2 (67145) - http://www.bohemiancoding.com/sketch -->
    <title>icons / search</title>
    <desc>Created with Sketch.</desc>
    <defs>
        <path d="M14.295,15.703 C14.685,16.099 15.317,16.099 15.707,15.703 C16.097,15.308 16.097,14.669 15.707,14.273 L12.627,11.193 C13.497,10.025 14.013,8.577 14.013,7.007 C14.013,3.137 10.876,0 7.007,0 C3.137,0 0,3.137 0,7.007 C0,10.877 3.137,14.014 7.007,14.014 C8.582,14.014 10.037,13.494 11.207,12.617 L14.295,15.703 Z M2.002,7.007 C2.002,4.243 4.242,2.002 7.007,2.002 C9.771,2.002 12.011,4.242 12.011,7.007 C12.011,9.771 9.771,12.012 7.008,12.012 C4.244,12.012 2.003,9.772 2.003,7.007 L2.002,7.007 Z" id="path-1"></path>
    </defs>
    <g id="icons-/-search" stroke="none" stroke-width="1" fill="none" fill-rule="evenodd">
        <mask id="mask-2" fill="white">
            <use xlink:href="#path-1"></use>
        </mask>
        <use id="Shape" fill-opacity="0.5" fill="#FFFFFF" xlink:href="#path-1"></use>
    </g>
</svg>