<?xml version="1.0" encoding="UTF-8"?>
<svg width="24px" height="24px" viewBox="0 0 24 24" version="1.1" xmlns="http://www.w3.org/2000/svg" xmlns:xlink="http://www.w3.org/1999/xlink">
    <!-- Generator: Sketch 52.2 (67145) - http://www.bohemiancoding.com/sketch -->
    <title>icons / cart@black30</title>
    <desc>Created with Sketch.</desc>
    <defs>
        <path d="M23.9316678,9.26756649 L21.5015192,21.3373043 C21.1789995,22.8643976 19.8484182,23.9684651 18.291323,24.0014671 L5.71155406,24.0014671 C4.1514587,23.9684651 2.82087737,22.8658977 2.49835765,21.3373043 L0.0697091984,9.26756649 C-0.116302172,8.46801762 0.0742094735,7.62646618 0.590241017,6.98742712 C1.10477247,6.34838805 1.88632024,5.98236568 2.70537031,6.00036678 L6.01607268,6.00036678 C6.01607268,2.68516413 8.70123681,3.55271368e-15 12.008939,3.55271368e-15 C15.3181413,2.88653946e-15 18.0018053,2.68516413 18.0018053,6.00036678 L21.2975068,6.00036678 C22.1180569,5.98536586 22.8996047,6.34838805 23.4156363,6.98742712 C23.9301677,7.62646618 24.1206794,8.46801762 23.934668,9.26756649 L23.9316678,9.26756649 Z M5.38603417,20.7342674 C5.44003747,20.8767761 5.56604517,20.9787824 5.71605434,21.0012837 L18.2898229,21.0012837 C18.4398321,20.9772823 18.5643397,20.875276 18.6168429,20.7342674 L19.1718768,18.0011003 L4.8385007,18.0011003 L5.38753426,20.7342674 L5.38603417,20.7342674 Z M12.0074389,3.00018339 C10.3513377,3.00018339 9.0102557,4.34276546 9.0102557,6.00036678 L15.0016219,6.00036678 C15.0016219,4.34276546 13.66054,3.00018339 12.0059388,3.00018339 L12.0074389,3.00018339 Z M3.02789002,9.00055017 L4.23546384,15.000917 L19.779414,15.000917 L20.9944883,8.99154962 L3.01588929,8.99154962 L3.03089021,9.00055017 L3.02789002,9.00055017 Z" id="path-1"></path>
    </defs>
    <g id="icons-/-cart" stroke="none" stroke-width="1" fill="none" fill-rule="evenodd">
        <mask id="mask-2" fill="white">
            <use xlink:href="#path-1"></use>
        </mask>
        <use id="Shape" fill="#000000" opacity="0.304873512" xlink:href="#path-1"></use>
    </g>
</svg>