<?xml version="1.0" encoding="UTF-8"?>
<svg width="24px" height="24px" viewBox="0 0 24 24" version="1.1" xmlns="http://www.w3.org/2000/svg" xmlns:xlink="http://www.w3.org/1999/xlink">
    <!-- Generator: Sketch 52.2 (67145) - http://www.bohemiancoding.com/sketch -->
    <title>icons / close</title>
    <desc>Created with Sketch.</desc>
    <defs>
        <path d="M3.10541667,5.22641667 C2.52041667,4.64141667 2.52041667,3.69041667 3.10541667,3.10541667 C3.69041667,2.52041667 4.64141667,2.52041667 5.22641667,3.10541667 L11.99925,9.87825 L18.7720833,3.10541667 C19.3570833,2.52041667 20.3080833,2.52041667 20.8930833,3.10541667 C21.4780833,3.69041667 21.4780833,4.64141667 20.8930833,5.22641667 L14.12025,11.99925 L20.8930833,18.7720833 C21.4780833,19.3570833 21.4780833,20.3080833 20.8930833,20.8930833 C20.3080833,21.4780833 19.3570833,21.4780833 18.7720833,20.8930833 L11.99925,14.12025 L5.22641667,20.8930833 C4.64141667,21.4780833 3.69041667,21.4780833 3.10541667,20.8930833 C2.52041667,20.3080833 2.52041667,19.3570833 3.10541667,18.7720833 L9.87825,11.99925 L3.10541667,5.22641667 Z" id="path-1"></path>
    </defs>
    <g id="icons-/-close" stroke="none" stroke-width="1" fill="none" fill-rule="evenodd">
        <mask id="mask-2" fill="white">
            <use xlink:href="#path-1"></use>
        </mask>
        <use id="Shape" fill="#FFFFFF" xlink:href="#path-1"></use>
    </g>
</svg>