<?xml version="1.0" encoding="UTF-8"?>
<svg width="24px" height="24px" viewBox="0 0 24 24" version="1.1" xmlns="http://www.w3.org/2000/svg" xmlns:xlink="http://www.w3.org/1999/xlink">
    <!-- Generator: Sketch 52.2 (67145) - http://www.bohemiancoding.com/sketch -->
    <title>icons / favorite fill</title>
    <desc>Created with Sketch.</desc>
    <defs>
        <path d="M21.6904495,14.2417213 C20.7784495,15.5377213 19.7764495,16.7647213 18.6904495,17.9167213 C17.6404495,19.0417213 16.5349495,20.1322213 15.4234495,21.1477213 C14.7529495,21.7582213 14.2234495,22.2127213 13.9084495,22.4752213 C12.7984495,23.3932213 11.1934495,23.3932213 10.0804495,22.4752213 C9.7654495,22.2127213 9.2359495,21.7552213 8.5654495,21.1462213 C7.4524495,20.1307213 6.3394495,19.0462213 5.2924495,17.9152213 C4.2124495,16.7647213 3.2119495,15.5407213 2.3029495,14.2507213 C0.945449504,12.5242213 0.142949504,10.4242213 0.00494950354,8.23122127 C-0.0700504965,6.19122127 0.709949504,4.21122127 2.1649495,2.77872127 C4.8484495,0.149221268 9.0829495,-0.0457787319 12.0004495,2.32872127 C14.9164495,-0.0487787319 19.1524495,0.144721268 21.8374495,2.77872127 C23.2834495,4.20822127 24.0634495,6.17772127 23.9914495,8.20872127 C23.8564495,10.4077213 23.0539495,12.5137213 21.6889495,14.2432213 L21.6904495,14.2417213 Z" id="path-1"></path>
    </defs>
    <g id="icons-/-favorite-fill" stroke="none" stroke-width="1" fill="none" fill-rule="evenodd">
        <mask id="mask-2" fill="white">
            <use xlink:href="#path-1"></use>
        </mask>
        <use id="Shape" fill="#F6511D" xlink:href="#path-1"></use>
    </g>
</svg>