<?xml version="1.0" encoding="UTF-8"?>
<svg width="24px" height="24px" viewBox="0 0 24 24" version="1.1" xmlns="http://www.w3.org/2000/svg" xmlns:xlink="http://www.w3.org/1999/xlink">
    <!-- Generator: Sketch 52.2 (67145) - http://www.bohemiancoding.com/sketch -->
    <title>icons / mail</title>
    <desc>Created with Sketch.</desc>
    <defs>
        <path d="M3.0105,22.0000212 C2.14593732,22.0000212 1.3662615,21.6347629 0.817077517,21.0500639 C0.313391109,20.5138048 0.00358795166,19.7929586 0,19.0000212 L0,5.00002123 C0,4.20202123 0.318,3.44002123 0.882,2.87452123 C1.4475,2.31202123 2.2125,1.99702123 3.012,2.00002123 L20.9895,2.00002123 C22.647,2.00002123 23.9925,3.34252123 24,5.00002123 L24,19.0000212 C24,19.7980212 23.682,20.5600212 23.118,21.1255212 C22.5525,21.6880212 21.7875,22.0030212 20.988,22.0000212 L3.0105,22.0000212 Z M21,19.0000212 L21,7.20502123 L13.5825,14.8400212 C13.1625,15.2645212 12.588,15.5000212 11.9925,15.5000212 C11.3925,15.5000212 10.8195,15.2645212 10.398,14.8400212 L3,7.22602123 L3,19.0000212 L21,19.0000212 Z M18.945,5.00002123 L5.04,5.00002123 L11.991,12.1700212 L18.945,5.00002123 Z" id="path-1"></path>
        <rect id="path-3" x="0" y="0" width="24" height="24"></rect>
    </defs>
    <g id="icons-/-mail" stroke="none" stroke-width="1" fill="none" fill-rule="evenodd">
        <mask id="mask-2" fill="white">
            <use xlink:href="#path-1"></use>
        </mask>
        <use id="Shape" fill="#000000" opacity="0.296223958" xlink:href="#path-1"></use>
        <g id="color-/-black-20%" opacity="0.203706287" mask="url(#mask-2)">
            <g id="Rectangle">
                <use fill="#FFFFFF" xlink:href="#path-3"></use>
                <use fill-opacity="0.200827" fill="#000000" xlink:href="#path-3"></use>
            </g>
        </g>
    </g>
</svg>