<?xml version="1.0" encoding="UTF-8"?>
<svg width="24px" height="24px" viewBox="0 0 24 24" version="1.1" xmlns="http://www.w3.org/2000/svg" xmlns:xlink="http://www.w3.org/1999/xlink">
    <!-- Generator: Sketch 52.2 (67145) - http://www.bohemiancoding.com/sketch -->
    <title>icons / password</title>
    <desc>Created with Sketch.</desc>
    <defs>
        <path d="M19.5,24 L4.5,24 C2.8425,24 1.5,22.6575 1.5,21 L1.5,9 C1.5,7.3425 2.8425,6 4.5,6 L6,6 C6,2.685 8.685,0 12,0 C15.315,0 18,2.685 18,6 L19.5,6 C21.1575,6 22.5,7.3425 22.5,9 L22.5,21 C22.5,22.6575 21.1575,24 19.5,24 Z M12,3 C10.3425,3 9,4.3425 9,6 L15,6 C15,4.3425 13.6575,3 12,3 Z M19.5,9 L4.5,9 L4.5,21 L19.5,21 L19.5,9 Z M12,12 C13.6575,12 15,13.3425 15,15 C15,16.6575 13.6575,18 12,18 C10.3425,18 9,16.6575 9,15 C9,13.3425 10.3425,12 12,12 Z" id="path-1"></path>
        <rect id="path-3" x="0" y="0" width="24" height="24"></rect>
    </defs>
    <g id="icons-/-password" stroke="none" stroke-width="1" fill="none" fill-rule="evenodd">
        <mask id="mask-2" fill="white">
            <use xlink:href="#path-1"></use>
        </mask>
        <use id="Shape" fill="#000000" opacity="0.198149182" xlink:href="#path-1"></use>
        <g id="color-/-black-20%" opacity="0.202008929" mask="url(#mask-2)">
            <g id="Rectangle">
                <use fill="#FFFFFF" xlink:href="#path-3"></use>
                <use fill-opacity="0.200827" fill="#000000" xlink:href="#path-3"></use>
            </g>
        </g>
    </g>
</svg>