<?xml version="1.0" encoding="UTF-8"?>
<svg width="24px" height="24px" viewBox="0 0 24 24" version="1.1" xmlns="http://www.w3.org/2000/svg" xmlns:xlink="http://www.w3.org/1999/xlink">
    <!-- Generator: Sketch 52.2 (67145) - http://www.bohemiancoding.com/sketch -->
    <title>icons / share</title>
    <desc>Created with Sketch.</desc>
    <defs>
        <path d="M3,21.006 C3,21.003 21,21 21,21 C20.994,21 21,13.494 21,13.494 C21,12.666 21.672,11.994 22.5,11.994 C23.328,11.994 24,12.666 24,13.494 L24,21.006 C24,22.65 22.65,24 21,24 L3,24 C1.341,24 0,22.662 0,21.006 L0,13.494 C0,12.666 0.672,11.994 1.5,11.994 C2.328,11.994 3,12.666 3,13.494 L3,21.006 Z M7.059,8.598 C6.474,9.192 5.5245,9.192 4.938,8.598 C4.353,8.004 4.353,7.041 4.938,6.4485 L10.41,0.666 C10.833,0.237 11.3955,0 12,0 C12.6,0 13.167,0.237 13.59,0.6675 L19.0605,6.45 C19.6455,7.041 19.6455,8.004 19.0605,8.598 C18.4755,9.192 17.526,9.192 16.9395,8.598 L13.5,4.878 L13.5,13.506 C13.5,14.334 12.8295,15.006 12,15.006 C11.175,15.006 10.5,14.334 10.5,13.506 L10.5,4.875 L7.0605,8.595 L7.059,8.598 Z" id="path-1"></path>
    </defs>
    <g id="icons-/-share" stroke="none" stroke-width="1" fill="none" fill-rule="evenodd">
        <mask id="mask-2" fill="white">
            <use xlink:href="#path-1"></use>
        </mask>
        <use id="Shape" fill="#000000" opacity="0.302618118" xlink:href="#path-1"></use>
    </g>
</svg>